<?xml version="1.0" encoding="UTF-8"?>
<svg width="24px" height="24px" viewBox="0 0 24 24" version="1.1" xmlns="http://www.w3.org/2000/svg">
    <title>Hotel Icon</title>
    <g stroke="none" stroke-width="1" fill="none" fill-rule="evenodd">
        <path d="M7,13 L7,21 L5,21 L5,13 L2,13 L2,21 L1,21 L1,11 L23,11 L23,21 L22,21 L22,13 L19,13 L19,21 L17,21 L17,13 L14,13 L14,21 L12,21 L12,13 L9,13 L9,21 L7,21" fill="#1976d2"/>
        <path d="M23,11 L1,11 L2,5 L22,5 L23,11 Z M12,2 L18,5 L6,5 L12,2 Z" fill="#1976d2"/>
    </g>
</svg>
